<svg xmlns="http://www.w3.org/2000/svg" xmlns:xlink="http://www.w3.org/1999/xlink" width="500" zoomAndPan="magnify" viewBox="0 0 375 374.999991" height="500" preserveAspectRatio="xMidYMid meet" version="1.0"><defs><g/><clipPath id="id1"><path d="M 77.960938 172.472656 L 294.710938 172.472656 L 294.710938 232.472656 L 77.960938 232.472656 Z M 77.960938 172.472656 " clip-rule="nonzero"/></clipPath></defs><g clip-path="url(#id1)"><path fill="#3d3d3d" d="M 186.335938 296.382812 C 126.59375 296.382812 77.960938 247.746094 77.960938 188.007812 C 77.960938 128.265625 126.59375 79.632812 186.335938 79.632812 C 246.074219 79.632812 294.710938 128.265625 294.710938 188.007812 C 294.710938 247.746094 246.074219 296.382812 186.335938 296.382812 Z M 186.335938 81.234375 C 127.449219 81.234375 79.5625 129.121094 79.5625 188.007812 C 79.5625 246.890625 127.449219 294.78125 186.335938 294.78125 C 245.21875 294.78125 293.109375 246.890625 293.109375 188.007812 C 293.109375 129.121094 245.21875 81.234375 186.335938 81.234375 Z M 186.335938 81.234375 " fill-opacity="1" fill-rule="nonzero"/></g><g fill="#3d3d3d" fill-opacity="1"><g transform="translate(114.372745, 115.401331)"><g><path d="M 7.34375 -6.578125 L 3.234375 -11.171875 L 4.671875 -6.625 L 3.390625 -5.484375 L -0.96875 -7.40625 L 3.140625 -2.8125 L 0.75 -0.671875 L -7.0625 -9.40625 L -4.453125 -11.75 L 1.109375 -9.328125 L -0.671875 -15.140625 L 1.9375 -17.453125 L 9.75 -8.71875 Z M 7.34375 -6.578125 "/></g></g></g><g fill="#3d3d3d" fill-opacity="1"><g transform="translate(134.860529, 99.425948)"><g><path d="M 0.875 -0.484375 L -4.890625 -10.6875 L -2.09375 -12.28125 L 3.671875 -2.078125 Z M 0.875 -0.484375 "/></g></g></g><g fill="#3d3d3d" fill-opacity="1"><g transform="translate(150.356287, 91.771694)"><g><path d="M 0.953125 -0.3125 L -2.71875 -11.4375 L 0.328125 -12.453125 L 3.125 -4 L 8.171875 -5.65625 L 9.046875 -2.984375 Z M 0.953125 -0.3125 "/></g></g></g><g fill="#3d3d3d" fill-opacity="1"><g transform="translate(171.211585, 86.199339)"><g><path d="M -0.125 0.015625 L 3.09375 -12.078125 L 5.6875 -12.328125 L 11.15625 -1.078125 L 7.765625 -0.75 L 6.84375 -2.96875 L 3.734375 -2.65625 L 3.265625 -0.3125 Z M 4.71875 -8.859375 L 4.015625 -4.84375 L 6.125 -5.046875 Z M 4.71875 -8.859375 "/></g></g></g><g fill="#3d3d3d" fill-opacity="1"><g transform="translate(194.078005, 85.312424)"><g><path d="M 4.96875 -5.109375 L 4.171875 0.59375 L 0.984375 0.140625 L 2.609375 -11.46875 L 5.109375 -11.125 L 8.9375 -4.5625 L 9.765625 -10.46875 L 12.953125 -10.015625 L 11.328125 1.59375 L 8.78125 1.234375 Z M 4.96875 -5.109375 "/></g></g></g><g fill="#3d3d3d" fill-opacity="1"><g transform="translate(217.854803, 90.177374)"><g><path d="M 9.75 0.75 L 8.734375 3.375 L 0.9375 0.359375 L 5.171875 -10.5625 L 12.8125 -7.59375 L 11.796875 -4.984375 L 7.15625 -6.78125 L 6.5625 -5.25 L 10.53125 -3.71875 L 9.59375 -1.28125 L 5.625 -2.8125 L 4.953125 -1.09375 Z M 6.84375 -11.484375 L 9.265625 -12.578125 L 11.375 -11.765625 L 12.421875 -9.328125 L 10.671875 -9.25 L 9.75 -10.734375 L 8.078125 -10.265625 Z M 6.84375 -11.484375 "/></g></g></g><g fill="#3d3d3d" fill-opacity="1"><g transform="translate(237.63722, 99.221186)"><g><path d="M 11.109375 -2.0625 C 10.953125 -2.414062 10.769531 -2.75 10.5625 -3.0625 C 10.382812 -3.332031 10.171875 -3.613281 9.921875 -3.90625 C 9.679688 -4.207031 9.414062 -4.457031 9.125 -4.65625 C 8.894531 -4.8125 8.679688 -4.90625 8.484375 -4.9375 C 8.296875 -4.96875 8.144531 -4.894531 8.03125 -4.71875 C 7.945312 -4.59375 7.914062 -4.457031 7.9375 -4.3125 C 7.96875 -4.175781 8.035156 -4.019531 8.140625 -3.84375 C 8.253906 -3.675781 8.398438 -3.488281 8.578125 -3.28125 C 8.753906 -3.070312 8.957031 -2.816406 9.1875 -2.515625 C 9.550781 -2.097656 9.859375 -1.679688 10.109375 -1.265625 C 10.359375 -0.859375 10.535156 -0.457031 10.640625 -0.0625 C 10.742188 0.320312 10.757812 0.71875 10.6875 1.125 C 10.613281 1.539062 10.421875 1.984375 10.109375 2.453125 C 9.722656 3.023438 9.289062 3.441406 8.8125 3.703125 C 8.332031 3.960938 7.832031 4.09375 7.3125 4.09375 C 6.800781 4.09375 6.285156 4 5.765625 3.8125 C 5.253906 3.625 4.773438 3.378906 4.328125 3.078125 C 3.972656 2.835938 3.625 2.566406 3.28125 2.265625 C 2.945312 1.960938 2.628906 1.632812 2.328125 1.28125 C 2.023438 0.9375 1.75 0.582031 1.5 0.21875 C 1.25 -0.144531 1.035156 -0.515625 0.859375 -0.890625 L 3.578125 -2.46875 C 3.765625 -2.050781 3.984375 -1.648438 4.234375 -1.265625 C 4.421875 -0.941406 4.664062 -0.597656 4.96875 -0.234375 C 5.269531 0.128906 5.609375 0.441406 5.984375 0.703125 C 6.285156 0.890625 6.515625 0.984375 6.671875 0.984375 C 6.835938 0.984375 6.960938 0.914062 7.046875 0.78125 C 7.140625 0.644531 7.160156 0.488281 7.109375 0.3125 C 7.066406 0.144531 6.96875 -0.0390625 6.8125 -0.25 C 6.664062 -0.457031 6.484375 -0.6875 6.265625 -0.9375 C 6.054688 -1.1875 5.84375 -1.457031 5.625 -1.75 C 5.289062 -2.175781 5.019531 -2.578125 4.8125 -2.953125 C 4.613281 -3.328125 4.484375 -3.691406 4.421875 -4.046875 C 4.367188 -4.398438 4.382812 -4.742188 4.46875 -5.078125 C 4.550781 -5.410156 4.710938 -5.757812 4.953125 -6.125 C 5.316406 -6.664062 5.738281 -7.078125 6.21875 -7.359375 C 6.695312 -7.640625 7.191406 -7.800781 7.703125 -7.84375 C 8.222656 -7.894531 8.75 -7.847656 9.28125 -7.703125 C 9.8125 -7.554688 10.316406 -7.320312 10.796875 -7 C 11.148438 -6.757812 11.472656 -6.488281 11.765625 -6.1875 C 12.066406 -5.882812 12.335938 -5.578125 12.578125 -5.265625 C 12.828125 -4.953125 13.046875 -4.640625 13.234375 -4.328125 C 13.429688 -4.023438 13.601562 -3.75 13.75 -3.5 Z M 11.109375 -2.0625 "/></g></g></g><g fill="#3d3d3d" fill-opacity="1"><g transform="translate(255.278366, 112.75267)"><g/></g></g><g fill="#3d3d3d" fill-opacity="1"><g transform="translate(157.140156, 212.249986)"><g><path d="M 58.863281 -59.527344 L 52.761719 -59.527344 L 30.304688 -6.890625 L 7.804688 -59.527344 L 1.039062 -59.527344 C 1.039062 -59.527344 3.488281 -58.367188 3.488281 -54.007812 L 3.488281 -5.8125 C 3.488281 -0.871094 1.785156 -0.0429688 1.785156 -0.0429688 L 6.183594 -0.0429688 C 6.183594 -0.0429688 4.441406 -0.871094 4.441406 -5.8125 C 4.441406 -5.8125 4.484375 -54.960938 4.484375 -55.378906 C 4.691406 -54.960938 28.644531 -0.0429688 28.644531 -0.0429688 C 28.644531 -0.0429688 51.847656 -55.003906 52.058594 -55.460938 L 52.058594 -5.8125 C 52.058594 -0.871094 50.355469 -0.0429688 50.355469 -0.0429688 L 58.863281 -0.0429688 C 58.863281 -0.0429688 57.121094 -0.871094 57.121094 -5.8125 L 57.121094 -54.050781 C 57.121094 -58.988281 58.863281 -59.527344 58.863281 -59.527344 Z M 58.863281 -59.527344 "/></g></g></g><g fill="#3d3d3d" fill-opacity="1"><g transform="translate(94.521525, 249.077362)"><g><path d="M 0.5625 0.796875 L 9.859375 -5.734375 L 12.375 -2.15625 C 12.90625 -1.394531 13.253906 -0.632812 13.421875 0.125 C 13.585938 0.882812 13.597656 1.609375 13.453125 2.296875 C 13.316406 2.992188 13.035156 3.640625 12.609375 4.234375 C 12.191406 4.828125 11.671875 5.34375 11.046875 5.78125 C 10.335938 6.28125 9.613281 6.617188 8.875 6.796875 C 8.132812 6.972656 7.421875 7 6.734375 6.875 C 6.046875 6.75 5.382812 6.476562 4.75 6.0625 C 4.125 5.644531 3.566406 5.082031 3.078125 4.375 Z M 9.21875 3.1875 C 9.570312 2.9375 9.859375 2.65625 10.078125 2.34375 C 10.304688 2.039062 10.460938 1.726562 10.546875 1.40625 C 10.640625 1.082031 10.648438 0.75 10.578125 0.40625 C 10.503906 0.0625 10.359375 -0.269531 10.140625 -0.59375 L 9.421875 -1.625 L 4.578125 1.78125 L 5.296875 2.8125 C 5.523438 3.144531 5.789062 3.394531 6.09375 3.5625 C 6.40625 3.738281 6.734375 3.835938 7.078125 3.859375 C 7.421875 3.890625 7.773438 3.847656 8.140625 3.734375 C 8.503906 3.617188 8.863281 3.4375 9.21875 3.1875 Z M 9.21875 3.1875 "/></g></g></g><g fill="#3d3d3d" fill-opacity="1"><g transform="translate(110.519768, 268.890084)"><g><path d="M 8.5625 4.03125 L 6.75 6.0625 L 0.71875 0.640625 L 8.296875 -7.8125 L 14.21875 -2.5 L 12.40625 -0.484375 L 8.8125 -3.703125 L 7.75 -2.515625 L 10.828125 0.234375 L 9.140625 2.125 L 6.0625 -0.625 L 4.859375 0.703125 Z M 8.5625 4.03125 "/></g></g></g><g fill="#3d3d3d" fill-opacity="1"><g transform="translate(128.997039, 283.428346)"><g><path d="M 10.609375 -2.8125 C 10.410156 -3.144531 10.203125 -3.457031 9.984375 -3.75 C 9.796875 -4 9.570312 -4.257812 9.3125 -4.53125 C 9.050781 -4.8125 8.769531 -5.035156 8.46875 -5.203125 C 8.238281 -5.335938 8.03125 -5.410156 7.84375 -5.421875 C 7.664062 -5.429688 7.523438 -5.34375 7.421875 -5.15625 C 7.347656 -5.03125 7.328125 -4.898438 7.359375 -4.765625 C 7.390625 -4.640625 7.460938 -4.492188 7.578125 -4.328125 C 7.703125 -4.171875 7.859375 -3.992188 8.046875 -3.796875 C 8.234375 -3.609375 8.445312 -3.382812 8.6875 -3.125 C 9.070312 -2.738281 9.398438 -2.351562 9.671875 -1.96875 C 9.941406 -1.59375 10.140625 -1.21875 10.265625 -0.84375 C 10.398438 -0.476562 10.445312 -0.09375 10.40625 0.3125 C 10.363281 0.71875 10.210938 1.148438 9.953125 1.609375 C 9.617188 2.203125 9.226562 2.640625 8.78125 2.921875 C 8.332031 3.203125 7.863281 3.363281 7.375 3.40625 C 6.882812 3.457031 6.382812 3.40625 5.875 3.25 C 5.363281 3.101562 4.882812 2.90625 4.4375 2.65625 C 4.070312 2.445312 3.710938 2.207031 3.359375 1.9375 C 3.003906 1.664062 2.664062 1.367188 2.34375 1.046875 C 2.03125 0.734375 1.734375 0.410156 1.453125 0.078125 C 1.179688 -0.242188 0.945312 -0.582031 0.75 -0.9375 L 3.265625 -2.671875 C 3.484375 -2.273438 3.722656 -1.898438 3.984375 -1.546875 C 4.203125 -1.242188 4.46875 -0.925781 4.78125 -0.59375 C 5.101562 -0.269531 5.457031 0 5.84375 0.21875 C 6.144531 0.382812 6.375 0.460938 6.53125 0.453125 C 6.6875 0.441406 6.800781 0.367188 6.875 0.234375 C 6.957031 0.0976562 6.96875 -0.0507812 6.90625 -0.21875 C 6.851562 -0.382812 6.742188 -0.5625 6.578125 -0.75 C 6.410156 -0.9375 6.210938 -1.140625 5.984375 -1.359375 C 5.753906 -1.585938 5.523438 -1.84375 5.296875 -2.125 C 4.941406 -2.507812 4.65625 -2.875 4.4375 -3.21875 C 4.226562 -3.570312 4.078125 -3.914062 3.984375 -4.25 C 3.898438 -4.582031 3.882812 -4.914062 3.9375 -5.25 C 4 -5.582031 4.132812 -5.929688 4.34375 -6.296875 C 4.644531 -6.847656 5.015625 -7.273438 5.453125 -7.578125 C 5.890625 -7.878906 6.359375 -8.070312 6.859375 -8.15625 C 7.359375 -8.238281 7.867188 -8.226562 8.390625 -8.125 C 8.910156 -8.03125 9.414062 -7.84375 9.90625 -7.5625 C 10.269531 -7.363281 10.609375 -7.128906 10.921875 -6.859375 C 11.234375 -6.597656 11.519531 -6.320312 11.78125 -6.03125 C 12.039062 -5.75 12.273438 -5.46875 12.484375 -5.1875 C 12.691406 -4.90625 12.867188 -4.640625 13.015625 -4.390625 Z M 10.609375 -2.8125 "/></g></g></g><g fill="#3d3d3d" fill-opacity="1"><g transform="translate(150.520827, 293.788914)"><g><path d="M 0.9375 0.265625 L 4.109375 -10.640625 L 8.296875 -9.40625 C 9.203125 -9.144531 9.953125 -8.769531 10.546875 -8.28125 C 11.148438 -7.800781 11.613281 -7.242188 11.9375 -6.609375 C 12.269531 -5.984375 12.457031 -5.304688 12.5 -4.578125 C 12.539062 -3.859375 12.453125 -3.125 12.234375 -2.375 C 11.992188 -1.550781 11.640625 -0.835938 11.171875 -0.234375 C 10.710938 0.359375 10.175781 0.820312 9.5625 1.15625 C 8.945312 1.5 8.257812 1.703125 7.5 1.765625 C 6.75 1.828125 5.957031 1.738281 5.125 1.5 Z M 9.1875 -3.265625 C 9.3125 -3.691406 9.363281 -4.09375 9.34375 -4.46875 C 9.332031 -4.84375 9.253906 -5.179688 9.109375 -5.484375 C 8.972656 -5.796875 8.773438 -6.066406 8.515625 -6.296875 C 8.253906 -6.523438 7.929688 -6.691406 7.546875 -6.796875 L 6.359375 -7.15625 L 4.703125 -1.46875 L 5.890625 -1.109375 C 6.285156 -1.003906 6.65625 -0.976562 7 -1.03125 C 7.34375 -1.082031 7.65625 -1.207031 7.9375 -1.40625 C 8.226562 -1.601562 8.476562 -1.859375 8.6875 -2.171875 C 8.90625 -2.492188 9.070312 -2.859375 9.1875 -3.265625 Z M 9.1875 -3.265625 "/></g></g></g><g fill="#3d3d3d" fill-opacity="1"><g transform="translate(175.391289, 299.259529)"><g><path d="M 9.21875 -2.203125 L 9.0625 0.515625 L 0.96875 0.046875 L 1.609375 -11.296875 L 9.546875 -10.84375 L 9.390625 -8.125 L 4.578125 -8.390625 L 4.484375 -6.796875 L 8.59375 -6.5625 L 8.453125 -4.046875 L 4.34375 -4.28125 L 4.25 -2.484375 Z M 9.21875 -2.203125 "/></g></g></g><g fill="#3d3d3d" fill-opacity="1"><g transform="translate(198.723848, 298.988949)"><g/></g></g><g fill="#3d3d3d" fill-opacity="1"><g transform="translate(215.793381, 295.667324)"><g><path d="M 7.109375 -5.1875 L 7.953125 -2.609375 L 0.90625 -0.296875 L 0.0625 -2.875 L 2.234375 -3.59375 L 1.234375 -6.625 C 1.179688 -6.476562 1.078125 -6.3125 0.921875 -6.125 C 0.765625 -5.945312 0.582031 -5.769531 0.375 -5.59375 C 0.175781 -5.414062 -0.03125 -5.253906 -0.25 -5.109375 C -0.476562 -4.960938 -0.6875 -4.859375 -0.875 -4.796875 L -1.75 -7.4375 C -1.613281 -7.476562 -1.429688 -7.597656 -1.203125 -7.796875 C -0.984375 -7.992188 -0.769531 -8.207031 -0.5625 -8.4375 C -0.363281 -8.664062 -0.1875 -8.894531 -0.03125 -9.125 C 0.113281 -9.351562 0.195312 -9.546875 0.21875 -9.703125 L 3.171875 -10.671875 L 5.1875 -4.5625 Z M 7.109375 -5.1875 "/></g></g></g><g fill="#3d3d3d" fill-opacity="1"><g transform="translate(236.845659, 287.227579)"><g><path d="M -2.234375 -4.65625 C -2.503906 -5.125 -2.671875 -5.625 -2.734375 -6.15625 C -2.796875 -6.695312 -2.753906 -7.21875 -2.609375 -7.71875 C -2.472656 -8.21875 -2.226562 -8.6875 -1.875 -9.125 C -1.53125 -9.570312 -1.097656 -9.953125 -0.578125 -10.265625 C 0.015625 -10.609375 0.597656 -10.800781 1.171875 -10.84375 C 1.753906 -10.894531 2.320312 -10.804688 2.875 -10.578125 C 3.4375 -10.347656 3.972656 -9.976562 4.484375 -9.46875 C 5.003906 -8.96875 5.488281 -8.335938 5.9375 -7.578125 C 6.40625 -6.765625 6.738281 -5.988281 6.9375 -5.25 C 7.144531 -4.507812 7.207031 -3.816406 7.125 -3.171875 C 7.039062 -2.523438 6.820312 -1.9375 6.46875 -1.40625 C 6.125 -0.882812 5.644531 -0.441406 5.03125 -0.078125 C 3.832031 0.628906 2.53125 0.796875 1.125 0.421875 L 1.59375 -2.109375 C 2.382812 -1.898438 3.101562 -1.988281 3.75 -2.375 C 4.195312 -2.632812 4.472656 -2.972656 4.578125 -3.390625 C 4.679688 -3.816406 4.597656 -4.285156 4.328125 -4.796875 C 4.148438 -4.285156 3.742188 -3.84375 3.109375 -3.46875 C 2.609375 -3.164062 2.097656 -2.972656 1.578125 -2.890625 C 1.066406 -2.804688 0.578125 -2.816406 0.109375 -2.921875 C -0.359375 -3.035156 -0.796875 -3.238281 -1.203125 -3.53125 C -1.617188 -3.820312 -1.960938 -4.195312 -2.234375 -4.65625 Z M 0.703125 -8.0625 C 0.546875 -7.96875 0.414062 -7.84375 0.3125 -7.6875 C 0.207031 -7.539062 0.132812 -7.378906 0.09375 -7.203125 C 0.0625 -7.023438 0.0546875 -6.835938 0.078125 -6.640625 C 0.109375 -6.453125 0.171875 -6.28125 0.265625 -6.125 C 0.460938 -5.800781 0.738281 -5.59375 1.09375 -5.5 C 1.457031 -5.414062 1.800781 -5.46875 2.125 -5.65625 C 2.445312 -5.84375 2.65625 -6.113281 2.75 -6.46875 C 2.851562 -6.832031 2.804688 -7.175781 2.609375 -7.5 C 2.515625 -7.65625 2.390625 -7.789062 2.234375 -7.90625 C 2.085938 -8.03125 1.925781 -8.117188 1.75 -8.171875 C 1.570312 -8.222656 1.390625 -8.238281 1.203125 -8.21875 C 1.015625 -8.195312 0.847656 -8.144531 0.703125 -8.0625 Z M 0.703125 -8.0625 "/></g></g></g><g fill="#3d3d3d" fill-opacity="1"><g transform="translate(256.220046, 274.11409)"><g><path d="M 4.328125 -8.84375 C 4.703125 -8.4375 4.957031 -7.988281 5.09375 -7.5 C 5.238281 -7.019531 5.28125 -6.53125 5.21875 -6.03125 C 5.15625 -5.53125 4.992188 -5.035156 4.734375 -4.546875 C 4.472656 -4.066406 4.125 -3.625 3.6875 -3.21875 C 3.28125 -2.832031 2.828125 -2.53125 2.328125 -2.3125 C 1.828125 -2.09375 1.320312 -1.96875 0.8125 -1.9375 C 0.300781 -1.90625 -0.195312 -1.984375 -0.6875 -2.171875 C -1.1875 -2.359375 -1.628906 -2.660156 -2.015625 -3.078125 C -2.210938 -3.285156 -2.363281 -3.503906 -2.46875 -3.734375 C -2.582031 -3.972656 -2.660156 -4.210938 -2.703125 -4.453125 C -2.742188 -4.691406 -2.757812 -4.925781 -2.75 -5.15625 C -2.738281 -5.382812 -2.710938 -5.59375 -2.671875 -5.78125 C -3.023438 -5.707031 -3.394531 -5.734375 -3.78125 -5.859375 C -4.175781 -5.992188 -4.503906 -6.195312 -4.765625 -6.46875 C -5.128906 -6.863281 -5.363281 -7.304688 -5.46875 -7.796875 C -5.570312 -8.285156 -5.578125 -8.757812 -5.484375 -9.21875 C -5.398438 -9.6875 -5.238281 -10.132812 -5 -10.5625 C -4.757812 -10.988281 -4.476562 -11.347656 -4.15625 -11.640625 C -3.832031 -11.941406 -3.445312 -12.195312 -3 -12.40625 C -2.5625 -12.625 -2.101562 -12.765625 -1.625 -12.828125 C -1.15625 -12.890625 -0.6875 -12.851562 -0.21875 -12.71875 C 0.25 -12.582031 0.671875 -12.316406 1.046875 -11.921875 C 1.296875 -11.640625 1.472656 -11.289062 1.578125 -10.875 C 1.679688 -10.46875 1.6875 -10.09375 1.59375 -9.75 C 1.78125 -9.78125 1.992188 -9.789062 2.234375 -9.78125 C 2.472656 -9.769531 2.707031 -9.726562 2.9375 -9.65625 C 3.175781 -9.59375 3.414062 -9.492188 3.65625 -9.359375 C 3.894531 -9.234375 4.117188 -9.0625 4.328125 -8.84375 Z M 1.9375 -6.875 C 1.695312 -7.125 1.425781 -7.242188 1.125 -7.234375 C 0.820312 -7.222656 0.546875 -7.097656 0.296875 -6.859375 C 0.046875 -6.628906 -0.0859375 -6.363281 -0.109375 -6.0625 C -0.140625 -5.757812 -0.0390625 -5.484375 0.1875 -5.234375 C 0.394531 -5.003906 0.65625 -4.890625 0.96875 -4.890625 C 1.28125 -4.890625 1.554688 -5.003906 1.796875 -5.234375 C 2.054688 -5.472656 2.195312 -5.75 2.21875 -6.0625 C 2.238281 -6.375 2.144531 -6.644531 1.9375 -6.875 Z M -2.453125 -8.53125 C -2.253906 -8.320312 -2.035156 -8.234375 -1.796875 -8.265625 C -1.566406 -8.296875 -1.378906 -8.378906 -1.234375 -8.515625 C -1.066406 -8.660156 -0.957031 -8.847656 -0.90625 -9.078125 C -0.863281 -9.316406 -0.941406 -9.539062 -1.140625 -9.75 C -1.285156 -9.90625 -1.472656 -9.976562 -1.703125 -9.96875 C -1.929688 -9.96875 -2.144531 -9.875 -2.34375 -9.6875 C -2.53125 -9.507812 -2.628906 -9.3125 -2.640625 -9.09375 C -2.660156 -8.875 -2.597656 -8.6875 -2.453125 -8.53125 Z M -2.453125 -8.53125 "/></g></g></g><g fill="#3d3d3d" fill-opacity="1"><g transform="translate(272.525844, 256.850919)"><g><path d="M -2.6875 -7.703125 L -5.140625 -4.140625 L -7.421875 -5.703125 L -2.265625 -13.203125 L 3.953125 -2.1875 L 2 0.640625 Z M -2.6875 -7.703125 "/></g></g></g></svg>